# xmcd
#
# Track frame offsets: 
#        150
#        16985
#        35413
#        52141
#        69570
#        89467
#        114901
#        133647
#        152138
#        174296
#        196557
#        218800
#        233674
#
# Disc length: 3361 seconds
#
# Revision: 0
# Processed by: cddbd v1.5.2PL0 Copyright (c) Steve Scherf et al.
# Submitted via: ExactAudioCopy v1.0b2
#
DISCID=a50d1f0d
DTITLE=Nace Brothers - Well Traveled Road
DYEAR=2011
DGENRE=Blues
TTITLE0=Unknown Artist - The Way It's Always Been
TTITLE1=Unknown Artist - Temptation
TTITLE2=Unknown Artist - Well Traveled Road
TTITLE3=Unknown Artist - Free
TTITLE4=Unknown Artist - Let Me Down Easy
TTITLE5=Unknown Artist - Sometimes It Rains
TTITLE6=Unknown Artist - Sunday Afternoon
TTITLE7=Unknown Artist - Love By Suprise
TTITLE8=Unknown Artist - World We Live In
TTITLE9=Unknown Artist - Daisy Chains
TTITLE10=Unknown Artist - Tore Down With The Blues
TTITLE11=Unknown Artist - Can't Change The Way I Live
TTITLE12=Unknown Artist - Sad Day
EXTD=
EXTT0=
EXTT1=
EXTT2=
EXTT3=
EXTT4=
EXTT5=
EXTT6=
EXTT7=
EXTT8=
EXTT9=
EXTT10=
EXTT11=
EXTT12=
PLAYORDER=
